<?xml version="1.0" encoding="utf-8"?>
<!-- Generator: Adobe Illustrator 25.2.3, SVG Export Plug-In . SVG Version: 6.00 Build 0)  -->
<svg version="1.1" id="圖層_1" xmlns="http://www.w3.org/2000/svg" xmlns:xlink="http://www.w3.org/1999/xlink" x="0px" y="0px"
	 viewBox="0 0 267.5 267.5" style="enable-background:new 0 0 267.5 267.5;" xml:space="preserve">
<style type="text/css">
	.st0{fill:#C0C0C0;}
</style>
<path id="user-circle-regular" class="st0" d="M351.5-299.4c-75.1,0-136.1,60.9-136.1,136.1S276.4-27.3,351.5-27.3
	s136.1-60.9,136.1-136.1C487.5-238.5,426.6-299.4,351.5-299.4z M351.5-95.3c-37.6,0-68-30.5-68-68c0-37.6,30.5-68,68-68
	c37.6,0,68,30.5,68,68l0,0C419.5-125.8,389.1-95.4,351.5-95.3z M351.5-435.5C157.4-435.5,0-278.1,0-84s157.4,351.5,351.5,351.5
	S703,110.1,703-84c0-194.1-157.3-351.5-351.4-351.5C351.6-435.5,351.5-435.5,351.5-435.5z M351.5,199.5
	c-67.7,0-133.2-24.3-184.4-68.6c21.7-33.7,58.6-54.6,98.6-56c27.7,8.8,56.6,13.4,85.8,13.6c29.1-0.1,58-4.7,85.8-13.6
	c40.1,1.4,76.9,22.3,98.6,56C484.7,175.1,419.2,199.5,351.5,199.5z M582.1,80.3C546.6,34,491.5,6.8,433.1,6.7
	c-14.5,0-36.9,13.6-81.6,13.6c-44.6,0-67.2-13.6-81.6-13.6c-58.4,0.1-113.4,27.3-149,73.6C30.1-47.2,59.8-224.1,187.2-314.9
	s304.4-61.1,395.2,66.4C616.6-200.5,635-143,635-84C635-25.1,616.5,32.4,582.1,80.3z"/>
</svg>
